<?xml version="1.0" encoding="UTF-8"?>
<svg width="299.79" height="50" version="1.1" viewBox="0 0 299.79 50" xml:space="preserve" xmlns="http://www.w3.org/2000/svg" xmlns:cc="http://creativecommons.org/ns#" xmlns:dc="http://purl.org/dc/elements/1.1/" xmlns:rdf="http://www.w3.org/1999/02/22-rdf-syntax-ns#"><metadata><rdf:RDF><cc:Work rdf:about=""><dc:format>image/svg+xml</dc:format><dc:type rdf:resource="http://purl.org/dc/dcmitype/StillImage"/><dc:title/></cc:Work></rdf:RDF></metadata><g transform="matrix(1.3333 0 0 -1.3333 63.722 39.291)"><g transform="scale(.1)"><g fill="#171717"><path d="m-386.72 179.71c-4.3139-1.6644-8.9809-2.9218-13.974-3.7496-5.0138-0.83652-10.177-1.2574-15.455-1.2574-18.227 0-31.828 4.7548-40.795 14.301-8.9674 9.5236-13.472 22.499-13.472 38.906 0 8.3548 1.2228 16.099 3.6549 23.268 2.4457 7.167 6.0938 13.437 10.951 18.783 4.8776 5.367 11.073 9.5322 18.58 12.534 7.507 2.9896 16.135 4.4852 25.884 4.4852 3.7567 0 7.7988-0.3061 12.113-0.8974 4.2936-0.59827 8.1997-1.3461 11.685-2.2278l-3.5666-24.016c-3.2134 1.1218-6.6781 2.0244-10.381 2.7183-3.7025 0.69913-7.2827 1.0522-10.781 1.0522-9.4973 0-16.766-3.0226-21.794-9.0488-5.0273-6.0331-7.5409-13.981-7.5409-23.831 0-10.531 2.5477-18.614 7.6427-24.233 5.0952-5.6035 12.602-8.4244 22.521-8.4244 3.7703 0 7.4049 0.38783 10.904 1.1548 3.4851 0.76175 6.9159 1.767 10.258 3.0244l3.5666-22.541"/><path d="m-351.04 176.36v108.53h26.916v-85.564h35.28v-22.962h-62.196"/><path d="m-159.47 218.31c0-6.2696-0.99827-12.045-3.0157-17.324-2.0244-5.2852-5.1166-9.9044-9.294-13.878-4.1774-3.9548-9.4975-7.0662-15.965-9.287-6.4661-2.2278-14.007-3.3287-22.635-3.3287-16.155 0-28.282 3.5461-36.414 10.631-8.1514 7.0992-12.214 16.984-12.214 29.633v70.129h26.922v-64.131c0-8.1862 1.9496-14.184 5.8696-18.002 3.9131-3.8244 9.7827-5.727 17.602-5.727 7.9636 0 13.771 2.1061 17.405 6.3514 3.6348 4.2331 5.4557 10.381 5.4557 18.431v63.077h26.284v-66.576"/><path d="m-44.668 209.35c0-5.014-1.0191-9.6818-3.0365-13.995-2.0035-4.3148-5.0818-8.0714-9.1722-11.264-4.1166-3.2052-9.1914-5.6714-15.237-7.4035-6.0609-1.7461-12.976-2.6157-20.769-2.6157-4.5844 0-9.3948 0.29218-14.409 0.8348-5.007 0.55652-9.3879 1.3252-13.138 2.2904l2.3096 22.553c3.9061-1.393 8.2331-2.48 12.988-3.24 4.7566-0.76696 9.287-1.1548 13.621-1.1548 6.1496 0 10.701 1.0522 13.635 3.1392 2.9287 2.0922 4.4035 4.8574 4.4035 8.3409 0 2.6505-1.087 4.8713-3.2609 6.6922-2.1548 1.8-5.1305 3.4644-8.9009 4.9931-3.7705 1.5287-7.927 3.207-12.466 5.007-4.5513 1.8209-8.5601 3.9409-12.057 6.3722-3.4992 2.4261-6.3531 5.6053-8.5948 9.4905-2.2418 3.894-3.3426 8.6279-3.3426 14.198 0 10.021 3.9548 18.125 11.889 24.308 7.9288 6.1948 19.478 9.287 34.647 9.287 3.6139 0 7.5079-0.18435 11.678-0.55826 4.1844-0.37218 7.8679-0.81391 11.061-1.3113l-2.087-21.705c-3.3618 0.83478-6.9966 1.5287-10.903 2.0922-3.927 0.54435-7.494 0.82957-10.701 0.82957-6.0122 0-10.428-0.8974-13.212-2.6644-2.807-1.7652-4.1983-4.4348-4.1983-7.9809 0-2.6505 1.0731-4.8453 3.247-6.5774 2.1531-1.7461 5.1635-3.3757 9.0018-4.9044 3.8383-1.5287 8.0766-3.1931 12.684-5.014 4.5983-1.8 8.6957-3.92 12.261-6.3653 3.567-2.4313 6.454-5.5913 8.6957-9.4975 2.2418-3.8852 3.3635-8.6279 3.3635-14.178"/><path d="m29.62 262.35v-85.985h-26.917v85.985h-28.383v22.541h83.675v-22.541h-28.376"/><path d="m89.946 176.36v108.53h68.242v-21.08h-41.319v-21.501h37.772v-20.652h-37.772v-23.588h41.319v-21.705h-68.242"/><path d="m253.13 250.35c0 4.4296-1.473 7.9479-4.4487 10.564-2.9687 2.6296-7.494 3.9409-13.553 3.9409-1.9357 0-3.7374-0.0348-5.3879-0.1026-1.6644-0.0679-2.8331-0.1687-3.5252-0.3061v-28.6c0.42088 0 1.033-0.033 1.8609-0.10087 0.83652-0.0679 1.9096-0.10261 3.2139-0.10261h3.6209c5.8087 0 10.292 1.3391 13.464 4.0418 3.1792 2.6974 4.7548 6.2505 4.7548 10.666zm3.3496-73.981-25.461 41.543h-4.8035v-41.543h-26.924v108.53c2.9218 0.13565 7.8679 0.27304 14.831 0.42087 6.9427 0.13739 14.741 0.20522 23.369 0.20522 14.179 0 25.136-2.6835 32.861-8.0314 7.7235-5.3653 11.583-13.743 11.583-25.155 0-7.3722-2.1531-13.635-6.4679-18.784-4.3131-5.1426-9.9514-8.6957-16.903-10.645 0.96523-1.2435 2.3792-3.2279 4.2-5.9444 1.8139-2.7044 3.1583-4.7566 3.9879-6.1479l22.485-34.444h-32.759"/><path d="m455.56 230.52c0 10.753-2.3774 19.124-7.167 25.122-4.7896 5.9914-11.604 9.0018-20.484 9.0018-4.1635 0-7.9688-0.73392-11.433-2.1948-3.4644-1.4748-6.454-3.6348-8.9322-6.4887-2.5148-2.8661-4.4174-6.4192-5.7218-10.678-1.3235-4.2661-1.9687-9.0348-1.9687-14.334 0-5.32 0.5774-10.056 1.7652-14.254 1.1687-4.1774 2.9009-7.7444 5.1983-10.664 2.2678-2.9357 5.1618-5.1635 8.6279-6.7062 3.4644-1.5287 7.4714-2.2957 12.051-2.2957 4.1652 0 7.9688 0.73392 11.433 2.1931 3.4661 1.4609 6.4418 3.6348 8.9548 6.4888 2.48 2.8661 4.3948 6.3861 5.6992 10.577 1.3322 4.1774 1.9774 8.934 1.9774 14.233zm28.804 2.1931c0-8.6279-1.3913-16.562-4.1844-23.797-2.7774-7.2348-6.7722-13.452-11.983-18.682-5.2174-5.2122-11.447-9.2053-18.684-11.991-7.2418-2.7861-15.169-4.1774-23.797-4.1774-8.7636 0-16.522 1.1878-23.268 3.5531-6.7392 2.3566-12.487 5.8766-17.221 10.543-4.7218 4.654-8.2679 10.395-10.633 17.209-2.3774 6.8261-3.5531 14.538-3.5531 23.165 0 8.6279 1.433 16.555 4.28 23.791 2.8609 7.2348 6.8818 13.471 12.099 18.682 5.2244 5.2174 11.447 9.2053 18.682 11.99 7.2366 2.7861 15.164 4.1792 23.792 4.1792 8.7636 0 16.522-1.1896 23.268-3.5461 6.7461-2.3652 12.445-5.8766 17.12-10.531 4.6539-4.6748 8.1722-10.414 10.529-17.221 2.3792-6.814 3.5531-14.539 3.5531-23.167"/><path d="m546.55 263.81v-23.586h36.943v-20.652h-36.943v-43.207h-26.915v108.53h66.997v-21.08h-40.082"/><path d="m681.58 176.36v108.53h68.234v-21.08h-41.319v-21.501h37.772v-20.652h-37.772v-23.588h41.319v-21.705h-68.234"/><path d="m857.51 176.36-24.301 36.936-23.899-36.936h-32.146l39.586 54.463-37.908 54.063h33.593l23.065-35.279 23.471 35.279h30.896l-37.214-52.806 39.505-55.72h-34.647"/><path d="m993.16 179.71c-4.3062-1.6644-8.981-2.9218-13.974-3.7496-5.014-0.83652-10.171-1.2574-15.456-1.2574-18.219 0-31.828 4.7548-40.795 14.301-8.967 9.5236-13.471 22.499-13.471 38.906 0 8.3548 1.2226 16.099 3.6557 23.268 2.4452 7.167 6.0992 13.437 10.957 18.783 4.8713 5.367 11.075 9.5322 18.574 12.534 7.5131 2.9896 16.141 4.4852 25.891 4.4852 3.7496 0 7.7914-0.3061 12.106-0.8974 4.2992-0.59827 8.207-1.3461 11.685-2.2278l-3.5671-24.016c-3.2139 1.1218-6.6713 2.0244-10.374 2.7183-3.7096 0.69913-7.2888 1.0522-10.788 1.0522-9.4905 0-16.767-3.0226-21.788-9.0488-5.0261-6.0331-7.5392-13.981-7.5392-23.831 0-10.531 2.5461-18.614 7.6348-24.233 5.1026-5.6035 12.602-8.4244 22.527-8.4244 3.7705 0 7.3983 0.38783 10.904 1.1548 3.4783 0.76175 6.9079 1.767 10.257 3.0244l3.5601-22.541"/><path d="m1028.8 176.36v108.53h68.24v-21.08h-41.326v-21.501h37.78v-20.652h-37.78v-23.588h41.326v-21.705h-68.24"/><path d="m1138.2 176.36v108.53h26.917v-85.564h35.258v-22.962h-62.174"/><path d="m1233 176.36v108.53h26.922v-85.564h35.254v-22.962h-62.176"/><path d="m1327.7 176.36v108.53h68.244v-21.08h-41.322v-21.501h37.774v-20.652h-37.774v-23.588h41.322v-21.705h-68.244"/><path d="m1508.8 176.36-33.235 49.879c-2.626 3.8922-5.2 7.9688-7.687 12.214-2.5043 4.2452-4.5043 8.0296-6.0347 11.379h-0.4c0.4-4.8783 0.6956-10.381 0.8173-16.494 0.1392-6.1288 0.2087-12.31 0.2087-18.581l0.2087-38.397h-25.67v108.53h32.365l31.966-47.792c2.6435-3.8922 5.2001-7.9688 7.7044-12.216 2.4696-4.2452 4.5044-8.0296 6.0349-11.358h0.4c-0.4 4.8574-0.7305 10.36-0.9392 16.475-0.1913 6.127-0.2957 12.31-0.2957 18.579v36.312h25.652v-108.53h-31.096"/><path d="m1659.1 179.71c-4.3131-1.6644-8.9914-2.9218-13.983-3.7496-5.0088-0.83652-10.174-1.2574-15.461-1.2574-18.209 0-31.826 4.7548-40.783 14.301-8.974 9.5236-13.478 22.499-13.478 38.906 0 8.3548 1.2348 16.099 3.6521 23.268 2.4523 7.167 6.1045 13.437 10.957 18.783 4.8696 5.367 11.078 9.5322 18.592 12.534 7.4956 2.9896 16.122 4.4852 25.878 4.4852 3.7566 0 7.7914-0.3061 12.104-0.8974 4.2958-0.59827 8.2088-1.3461 11.687-2.2278l-3.5653-24.016c-3.2174 1.1218-6.6783 2.0244-10.383 2.7183-3.7044 0.69913-7.287 1.0522-10.783 1.0522-9.4956 0-16.765-3.0226-21.791-9.0488-5.0262-6.0331-7.5305-13.981-7.5305-23.831 0-10.531 2.5392-18.614 7.6349-24.233 5.0956-5.6035 12.609-8.4244 22.522-8.4244 3.774 0 7.4088 0.38783 10.904 1.1548 3.4783 0.76175 6.9044 1.767 10.261 3.0244l3.5652-22.541"/><path d="m1694.8 176.36v108.53h68.227v-21.08h-41.322v-21.501h37.774v-20.652h-37.774v-23.588h41.322v-21.705h-68.227"/></g><g fill="#3473c2"><path d="m-378.79-4.5679c0 13.485-3.1454 24.103-9.3954 31.814-6.2637 7.7242-15.095 11.583-26.508 11.583-5.2854 0-10.122-0.93757-14.504-2.8058-4.3818-1.8818-8.2065-4.6331-11.481-8.2542-3.2609-3.6141-5.7745-8.0978-7.5068-13.451-1.7527-5.367-2.6155-11.379-2.6155-18.05 0-13.37 3.1386-23.9 9.3886-31.624 6.2705-7.7312 15.102-11.583 26.515-11.583 5.2786 0 10.122 0.93079 14.504 2.8193 4.382 1.8818 8.1999 4.6195 11.481 8.2338 3.2609 3.6209 5.7745 8.0707 7.5068 13.37 1.7324 5.2785 2.6155 11.257 2.6155 17.948zm-10.856-47.589c2.7854 0.13583 5.0816-0.03392 6.882-0.52313 1.8138-0.49583 5.1426-1.4946 10.02-3.0232 4.871-1.5285 9.1169-2.5814 12.738-3.1249 3.6141-0.564 7.7107-0.564 12.31 0v-13.37c-7.0992-0.82881-13.077-0.82881-17.948 0-4.8778 0.83561-10.292 2.4457-16.291 4.8098-5.9783 2.3574-11.053 4.1441-15.231 5.3125-4.1644 1.1889-9.5314 1.7867-16.067 1.7867h-3.3287c-16.155 0-28.669 4.7555-37.568 14.28-8.9199 9.5312-13.37 22.996-13.37 40.387 0 8.6279 1.2908 16.495 3.8723 23.594 2.568 7.0856 6.25 13.179 11.06 18.254 4.8032 5.0816 10.564 8.9675 17.324 11.685 6.7392 2.7174 14.144 4.076 22.228 4.076 16.135 0 28.655-4.7691 37.555-14.3 8.9131-9.5246 13.363-22.989 13.363-40.381 0-8.0707-1.2569-15.7-3.7501-22.847-2.5136-7.1672-6.2025-13.2-11.073-18.057-1.936-1.9498-3.9945-3.6482-6.148-5.1087-2.1604-1.4607-4.3479-2.6155-6.5762-3.4512"/><path d="m-235-17.306c0-5.9783-0.91827-11.515-2.7252-16.59-1.7931-5.0816-4.5792-9.5992-8.3357-13.574-3.7705-3.9538-8.6609-7.0653-14.722-9.2731-6.0453-2.2216-13.111-3.3425-21.181-3.3425-14.471 0-25.524 3.3425-33.187 10.02-7.6428 6.6714-11.481 16.271-11.481 28.805v71.366h16.087v-69.226c0-9.4769 2.5475-16.529 7.6903-21.128 5.1287-4.6061 12.555-6.8955 22.249-6.8955 5.4 0 10.021 0.72696 13.824 2.1875 3.8244 1.4607 6.8957 3.5192 9.2592 6.1686 2.3583 2.6494 4.0905 5.8221 5.1983 9.5246 1.113 3.6889 1.6644 7.9143 1.6644 12.656v66.713h15.659v-67.412"/><path d="m-152.02 17.341c-2.2418 6.2501-3.6748 10.224-4.2992 11.889-0.6261 1.6847-1.2904 3.5529-1.9913 5.6387h-0.20348c-0.69218-2.3574-1.4609-4.8032-2.2887-7.3032-0.83652-2.5068-2.0052-5.9103-3.5339-10.224l-15.4-39.654h42.779zm28.67-75.761-9.2053 24.219h-51.346l-9.3531-24.219h-16.068l42.691 108.53h18.567l42.256-108.53h-17.541"/><path d="m-2.3108-58.42-42.981 63.655c-2.9218 4.1779-5.8435 8.6277-8.7635 13.363-2.9218 4.7214-5.4348 8.8995-7.5288 12.52h-0.20348c0.27304-4.8778 0.49566-10.584 0.63305-17.12 0.13565-6.5423 0.20348-13.913 0.20348-22.113l0.20348-50.306h-15.238v108.53h19.837l41.529-61.57c3.1931-4.5856 6.2644-9.2867 9.1862-14.076 2.92-4.8098 5.2174-8.7502 6.8818-11.807h0.42087c-0.42087 4.742-0.69392 10.347-0.82957 16.814-0.15652 6.4606-0.22435 13.947-0.22435 22.419l-0.20348 48.221h15.435v-108.53h-18.357"/><path d="m92.643 37.165v-95.585h-16.059v95.585h-32.359v12.942h81.183v-12.942h-32.765"/><path d="m245-17.306c0-5.9783-0.91827-11.515-2.7252-16.59-1.8-5.0816-4.5792-9.5992-8.3357-13.574-3.7705-3.9538-8.6609-7.0653-14.722-9.2731-6.0453-2.2216-13.111-3.3425-21.181-3.3425-14.471 0-25.531 3.3425-33.186 10.02-7.6435 6.6714-11.482 16.271-11.482 28.805v71.366h16.08v-69.226c0-9.4769 2.5478-16.529 7.6974-21.128 5.1287-4.6061 12.555-6.8955 22.249-6.8955 5.4018 0 10.021 0.72696 13.824 2.1875 3.8244 1.4607 6.8957 3.5192 9.2592 6.1686 2.3583 2.6494 4.0905 5.8221 5.1983 9.5246 1.12 3.6889 1.6644 7.9143 1.6644 12.656v66.713h15.659v-67.412"/><path d="m410.49-58.42-10.72 64.281c-0.8487 5.2853-1.6435 10.564-2.4261 15.863-0.76697 5.2853-1.3652 10.02-1.7861 14.185h-0.20348c-0.9861-4.0286-1.9913-7.8126-3.0366-11.365-1.04-3.5463-2.127-6.9294-3.2279-10.122l-27.364-72.84h-15.421l-25.463 68.662c-1.8139 5.2854-3.4783 10.122-5.007 14.504-1.5287 4.3818-2.7165 8.1046-3.5531 11.162h-0.19652c-0.40697-4.1644-0.95828-9.0015-1.6313-14.504-0.67827-5.4893-1.3652-10.734-2.0365-15.747l-9.8036-64.077h-16.066l18.715 108.53h21.468l25.463-67.616c1.2365-3.2066 2.4244-6.6576 3.5461-10.34 1.1061-3.6889 2.0035-6.9839 2.7026-9.9049h0.21739c0.83652 3.0571 1.8018 6.3858 2.9078 10.02 1.1009 3.6209 2.2904 7.0176 3.5461 10.224l25.395 67.616h21.55l18.906-108.53h-16.475"/><path d="m607.07-17.306c0-5.9783-0.91653-11.515-2.7166-16.59-1.8017-5.0816-4.5861-9.5992-8.3357-13.574-3.7705-3.9538-8.6696-7.0653-14.729-9.2731-6.047-2.2216-13.111-3.3425-21.183-3.3425-14.463 0-25.524 3.3425-33.186 10.02-7.6348 6.6714-11.473 16.271-11.473 28.805v71.366h16.08v-69.226c0-9.4769 2.5461-16.529 7.6957-21.128 5.1305-4.6061 12.548-6.8955 22.249-6.8955 5.4018 0 10.014 0.72696 13.826 2.1875 3.8174 1.4607 6.894 3.5192 9.2522 6.1686 2.3635 2.6494 4.0957 5.8221 5.1966 9.5246 1.1218 3.6889 1.6644 7.9143 1.6644 12.656v66.713h15.659v-67.412"/><path d="m727.08-58.42-43.004 63.655c-2.92 4.1779-5.8418 8.6277-8.7635 13.363-2.92 4.7214-5.4209 8.8995-7.5062 12.52h-0.2174c0.28523-4.8778 0.4887-10.584 0.62436-17.12 0.13565-6.5423 0.22435-13.913 0.22435-22.113l0.20347-50.306h-15.237v108.53h19.816l41.55-61.57c3.1931-4.5856 6.2505-9.2867 9.1705-14.076 2.9148-4.8098 5.2105-8.7502 6.8887-11.807h0.41566c-0.41566 4.742-0.70087 10.347-0.83652 16.814-0.13566 6.4606-0.20348 13.947-0.20348 22.419l-0.20348 48.221h15.442v-108.53h-18.364"/><path d="m792.18-58.42v108.53h16.066v-108.53h-16.066"/><path d="m895.39-58.42h-18.355l-42.291 108.53h18.153l24.816-66.577c1.6452-4.4498 3.207-8.8655 4.647-13.247 1.447-4.3818 2.8609-8.7296 4.2522-13.044h0.20522c1.2557 3.8859 2.6157 7.8942 4.0748 11.991 1.4748 4.1101 3.3096 8.947 5.5514 14.504l25.952 66.373h16.487l-43.493-108.53"/><path d="m965.18-58.42v108.53h60.938v-12.317h-44.858v-34.443h40.898v-11.889h-40.898v-36.936h44.858v-12.942h-60.938"/><path d="m1119.8 19.108c0 6.0122-2.0383 10.768-6.1131 14.266-4.0975 3.4986-10.341 5.2513-18.784 5.2513-2.7722 0-5.3322-0.03392-7.6766-0.10191-2.3583-0.06782-4.0087-0.16974-4.974-0.32609v-38.601c1.1009 0 2.821-0.033913 5.1775-0.10191 2.3443-0.067827 4.633-0.10191 6.8487-0.10191 8.1653 0 14.47 1.7527 18.885 5.2447 4.4296 3.4986 6.6366 8.322 6.6366 14.47zm4.1792-77.528-33.595 46.332h-8.1323v-46.332h-16.087v108.53c2.5147 0.13583 6.5357 0.23774 12.113 0.30574 5.5705 0.06782 11.55 0.11548 17.95 0.11548 12.52 0 22.371-2.4797 29.531-7.4187 7.1532-4.9456 10.741-12.419 10.741-22.439 0-4.4498-0.7548-8.4376-2.2766-11.991-1.5287-3.5463-3.6539-6.5694-6.3513-9.083-2.7043-2.5-5.8157-4.5176-9.3409-6.0461-3.5531-1.5287-7.2209-2.6496-11.047-3.3492 1.3792-1.6645 2.8401-3.4308 4.3479-5.3126 1.5148-1.8887 3.0296-3.9402 4.5392-6.1482l27.445-37.161h-19.837"/><path d="m1240.9-27.53c0-4.4498-0.9183-8.6618-2.7183-12.629-1.8139-3.9606-4.5513-7.4456-8.2331-10.435-3.7027-2.9891-8.3218-5.3124-13.892-6.9973-5.5583-1.6644-11.889-2.4932-18.988-2.4932-4.3219 0-8.9688 0.30574-13.981 0.93079-5.007 0.63166-9.3287 1.3586-12.943 2.1943l2.0921 13.995c3.8871-1.3927 8.167-2.4458 12.833-3.1454 4.6609-0.69305 9.294-1.0327 13.88-1.0327 4.4487 0 8.2731 0.46192 11.48 1.3724 3.1931 0.90349 5.8087 2.1739 7.8122 3.7908 2.0244 1.6304 3.52 3.5122 4.4974 5.7065 0.9722 2.1739 1.461 4.6672 1.461 7.4933 0 3.6141-1.2157 6.6373-3.6488 9.083-2.4452 2.4252-4.9792 4.1915-7.621 5.3126-2.6503 1.1073-7.4052 2.9552-14.308 5.5366-6.8748 2.568-12.242 5.0138-16.059 7.3032-3.8243 2.2962-6.9844 5.3193-9.4974 9.0693-2.5008 3.7569-3.7496 8.4241-3.7496 13.995 0 8.7635 3.4435 16.006 10.318 21.705 6.9026 5.6929 17.16 8.5462 30.795 8.5462 3.4644 0 7.3705-0.22418 11.685-0.67931 4.313-0.46192 8.0713-1.0054 11.263-1.6101l-1.8678-13.573c-3.3496 0.84922-7.0314 1.5285-11.059 2.0856-4.0417 0.564-7.6557 0.83566-10.849 0.83566-8.3566 0-14.404-1.3247-18.174-4.0082-3.7566-2.6833-5.6244-6.6915-5.6244-12.059 0-3.6209 1.2087-6.6441 3.6557-9.0693 2.4244-2.4458 4.9722-4.1781 7.6088-5.2174 2.6417-1.0531 7.4035-2.9009 14.299-5.5367 6.8748-2.6494 12.277-5.1087 16.162-7.4049 3.9061-2.2894 7.0992-5.3329 9.6192-9.083 2.4938-3.7567 3.7513-8.4239 3.7513-13.981"/><path d="m1278.4-58.42v108.53h60.94v-12.317h-44.852v-34.443h40.905v-11.889h-40.905v-36.936h44.852v-12.942h-60.94"/></g></g></g></svg>
